General
Complete name                  : C:\\Users\\Sennin974\\Videos\\Anime mangas\\One Piece\\[Island-Fansub]_Bleach_356_VOSTFR_HD_[x264_AAC_LC]_[B2051213]_[1280x720].mp4
Format                         : MPEG-4
Format profile                 : Base Media
Codec ID                       : isom
File size                      : 275 MiB
Duration                       : 24mn 24s
Overall bit rate mode          : Variable
Overall bit rate               : 1 575 Kbps
Encoded date                   : UTC 2012-01-19 04:35:12
Tagged date                    : UTC 2012-01-19 04:35:12

Video
ID                             : 1
Format                         : AVC
Format/Info                    : Advanced Video Codec
Format profile                 : High@L4.1
Format settings, CABAC         : Yes
Format settings, ReFrames      : 5 frames
Codec ID                       : avc1
Codec ID/Info                  : Advanced Video Coding
Duration                       : 24mn 24s
Bit rate mode                  : Variable
Bit rate                       : 1 476 Kbps
Maximum bit rate               : 50.0 Mbps
Width                          : 1 280 pixels
Height                         : 720 pixels
Display aspect ratio           : 16:9
Frame rate mode                : Constant
Frame rate                     : 23.976 fps
Color space                    : YUV
Chroma subsampling             : 4:2:0
Bit depth                      : 8 bits
Scan type                      : Progressive
Bits/(Pixel*Frame)             : 0.067
Stream size                    : 258 MiB (94%)
Writing library                : x264 core 120 r2120+639 552713c
Encoding settings              : cabac=1 / ref=5 / deblock=1:0:0 / analyse=0x3:0x113 / me=umh / subme=11 / psy=1 / fade_compensate=0.00 / psy_rd=1.00:0.25 / mixed_ref=1 / me_range=32 / chroma_me=1 / trellis=2 / 8x8dct=1 / cqm=0 / deadzone=32,16 / fast_pskip=1 / chroma_qp_offset=-4 / threads=6 / sliced_threads=0 / slices=4 / nr=0 / decimate=1 / interlaced=0 / bluray_compat=0 / constrained_intra=0 / fgo=0 / bframes=16 / b_pyramid=2 / b_adapt=2 / b_bias=100 / direct=3 / weightb=1 / open_gop=0 / weightp=2 / keyint=300 / keyint_min=23 / scenecut=40 / intra_refresh=0 / rc_lookahead=100 / rc=crf / mbtree=1 / crf=19.0 / qcomp=0.60 / qpmin=0 / qpmax=69 / qpstep=4 / vbv_maxrate=50000 / vbv_bufsize=50000 / crf_max=0.0 / nal_hrd=vbr / ip_ratio=1.40 / aq=1:1.00
Encoded date                   : UTC 2012-01-19 04:35:12
Tagged date                    : UTC 2012-01-19 04:35:21
Color primaries                : BT.709-5, BT.1361, IEC 61966-2-4, SMPTE RP177
Transfer characteristics       : BT.709-5, BT.1361
Matrix coefficients            : BT.709-5, BT.1361, IEC 61966-2-4 709, SMPTE RP177

Audio
ID                             : 2
Format                         : AAC
Format/Info                    : Advanced Audio Codec
Format profile                 : LC
Codec ID                       : 40
Duration                       : 24mn 24s
Bit rate mode                  : Variable
Bit rate                       : 96.0 Kbps
Maximum bit rate               : 160 Kbps
Channel(s)                     : 2 channels
Channel positions              : Front: L R
Sampling rate                  : 48.0 KHz
Compression mode               : Lossy
Stream size                    : 16.8 MiB (6%)
Language                       : Japanese
Encoded date                   : UTC 2012-01-19 04:35:20
Tagged date                    : UTC 2012-01-19 04:35:21